<svg width="32" height="32" viewBox="0 0 32 32" fill="none" xmlns="http://www.w3.org/2000/svg">
<path d="M14.89 2.05C18.42 1.56 21.78 4.66 22.43 8.99C26.33 8.32 29.93 9.97 30.73 12.93C31.33 15.18 30.14 17.59 27.89 19.22C29.15 21.83 29.02 24.63 27.31 26.34C24.97 28.68 20.54 28.05 17.41 24.92C17.37 24.88 17.33 24.84 17.29 24.8C17.26 24.84 17.22 24.89 17.18 24.93C14.99 28.78 10.87 30.54 8.00 28.88C5.53 27.45 4.79 23.96 6.04 20.57C3.09 19.69 1.00 17.53 1.00 15.00C1.00 11.68 4.58 9.00 9.00 9.00C9.16 9.00 9.32 9.01 9.48 9.01C9.67 5.43 11.85 2.48 14.89 2.05ZM20.50 12.01C18.84 12.01 18.50 13.69 18.50 15.01C18.50 16.32 18.84 18.01 20.50 18.01C22.16 18.01 22.50 16.32 22.50 15.01C22.50 13.69 22.16 12.01 20.50 12.01ZM13.50 12.01C11.84 12.01 11.50 13.69 11.50 15.00C11.50 16.32 11.84 18.00 13.50 18.00C15.16 18.00 15.50 16.32 15.50 15.00C15.50 13.69 15.16 12.01 13.50 12.01Z" fill="oklch(0.89 0.19 145)"/>
</svg>
