<svg width="96" height="96" viewBox="0 0 96 96" fill="none" xmlns="http://www.w3.org/2000/svg">
<path d="M44.6699 6.16288C55.2664 4.67388 65.3442 13.9702 67.2822 26.9646C79.0004 24.9745 89.8046 29.9202 92.1797 38.784C93.9905 45.5429 90.4174 52.7787 83.6777 57.6678C87.4398 65.4834 87.047 73.899 81.9395 79.0066C74.91 86.036 61.6138 84.137 52.2412 74.7644C52.1123 74.6356 51.9854 74.5051 51.8594 74.3748C51.771 74.5339 51.6823 74.6939 51.5908 74.8523C44.9634 86.3311 32.6121 91.6068 24.0029 86.6365C16.5913 82.3573 14.3691 71.879 18.123 61.7224C9.26249 59.0753 3 52.5832 3 44.9939C3.00022 35.0529 13.7453 26.9939 27 26.9939C27.4866 26.9939 27.9698 27.0057 28.4492 27.0271C29.0089 16.2894 35.5557 7.4438 44.6699 6.16288ZM61.5 36.0349C56.509 36.0349 55.5 41.0665 55.5 45.0174C55.5 48.9663 56.5056 54.0349 61.5 54.0349C66.4944 54.0348 67.5 48.9664 67.5 45.0174C67.5 41.0663 66.491 36.035 61.5 36.0349ZM40.5 36.0174C35.509 36.0174 34.5 41.0489 34.5 44.9998C34.5 48.9487 35.5056 54.0174 40.5 54.0174C45.4944 54.0173 46.5 48.9488 46.5 44.9998C46.5 41.0487 45.491 36.0175 40.5 36.0174Z" fill="oklch(0.89 0.19 145)"/>
</svg>
